<svg width="296" height="435" viewBox="0 0 296 435" fill="none" xmlns="http://www.w3.org/2000/svg">
<g filter="url(#filter0_i_431_1438)">
<path d="M46.4983 275.657C25.7103 232.927 84.4653 135.345 74.9653 164.845C67.2728 188.732 75.8513 195.349 89.4653 206.345C128.465 237.845 253.01 286.58 283.033 270.589C272.287 289.406 243.021 297.999 214.972 317.215C191.884 333.032 203.422 325.127 155.522 342.791C110.403 359.428 67.2863 318.387 46.4983 275.657Z" fill="#C92E2E"/>
<path d="M251.5 110.569C249.152 83.671 286.5 162.569 293.5 209.569C300.5 256.569 288.125 314.795 241.5 326.569C192 339.069 205.987 339.069 178 339.069C144 339.069 100.5 339.069 78.5 291.569C69.393 271.906 66 179.569 100.5 143.569C190.637 49.5127 185.129 36.6096 182 6.56867C178.141 -30.4754 221.088 99.0199 223.158 148.979C235.719 138.514 252.748 124.869 251.5 110.569Z" fill="#C92E2E"/>
<path d="M78.0097 287.689C62.805 256.436 105.779 185.062 98.8309 206.639C93.2045 224.11 99.4789 228.95 109.436 236.993C137.962 260.032 229.056 295.678 251.015 283.982C243.155 297.745 221.75 304.031 201.234 318.085C184.347 329.654 192.787 323.872 157.751 336.792C124.751 348.961 93.2144 318.943 78.0097 287.689Z" fill="#DB9C13"/>
<path d="M227.951 166.941C226.234 147.267 253.551 204.974 258.671 239.351C263.791 273.727 254.739 316.315 220.637 324.927C184.432 334.069 194.662 334.069 174.192 334.069C149.324 334.069 117.507 334.069 101.416 299.327C94.7552 284.945 92.2735 217.408 117.507 191.077C183.435 122.283 179.407 112.846 177.118 90.8731C174.296 63.7785 205.708 158.494 207.222 195.034C216.409 187.38 228.865 177.4 227.951 166.941Z" fill="#DB9C13"/>
<path d="M103.512 300.382C92.5533 277.857 123.526 226.416 118.518 241.967C114.463 254.559 118.985 258.047 126.162 263.844C146.721 280.449 212.375 306.14 228.202 297.711C222.537 307.63 207.11 312.16 192.323 322.29C180.152 330.628 186.235 326.461 160.984 335.772C137.199 344.543 114.47 322.908 103.512 300.382Z" fill="#D3E839"/>
<path d="M211.579 213.355C210.341 199.176 230.03 240.767 233.72 265.544C237.41 290.32 230.886 321.014 206.308 327.221C180.213 333.81 187.587 333.81 172.833 333.81C154.91 333.81 131.979 333.81 120.382 308.77C115.581 298.405 113.792 249.729 131.979 230.751C179.495 181.169 176.592 174.368 174.942 158.531C172.908 139.003 195.548 207.267 196.639 233.604C203.26 228.087 212.237 220.894 211.579 213.355Z" fill="#D3E839"/>
</g>
<path d="M96.0986 321.685C116.31 320.126 145.023 319.782 173.73 320.282C202.435 320.781 231.096 322.124 251.197 323.934C261.261 324.84 269.129 325.859 273.779 326.936C274.938 327.204 275.874 327.471 276.584 327.733C277.083 327.917 277.424 328.082 277.643 328.216C277.52 328.29 277.346 328.383 277.102 328.489C271.399 330.951 264.748 336.755 257.83 343.957C250.884 351.189 243.558 359.951 236.515 368.458C229.459 376.981 222.694 385.238 216.832 391.515C213.901 394.653 211.22 397.271 208.861 399.169C206.47 401.093 204.533 402.176 203.081 402.421C196.176 403.589 190.453 405.16 184.776 406.378C179.071 407.603 173.279 408.507 166.012 408.408C152.573 408.223 145.679 405.554 131.97 402.432C130.505 402.098 128.729 401.05 126.663 399.293C124.615 397.552 122.367 395.188 119.955 392.35C115.131 386.673 109.737 379.196 104.084 371.228C98.4418 363.275 92.5471 354.842 86.752 347.307C80.9633 339.78 75.2275 333.088 69.8887 328.639C69.3027 328.151 69.0849 327.788 69.0225 327.568C68.9787 327.414 68.9857 327.259 69.165 327.022C69.3752 326.744 69.7972 326.401 70.5264 326.028C71.2423 325.661 72.1852 325.301 73.3555 324.952C78.0609 323.547 85.9723 322.466 96.0986 321.685Z" fill="#70430F" stroke="black" stroke-width="2"/>
<path d="M153.144 408.069H180.856L167 432.069L153.144 408.069Z" fill="#70430F" stroke="black" stroke-width="2"/>
<path d="M154.264 302.773C153.752 302.773 153.336 302.677 153.016 302.485C152.696 302.357 152.568 302.037 152.632 301.525C152.632 301.333 152.728 301.045 152.92 300.661C153.112 300.277 153.24 299.989 153.304 299.797C153.624 298.901 153.912 298.005 154.168 297.109C154.424 296.149 154.68 295.253 154.936 294.421C155.832 290.901 156.664 287.413 157.432 283.957C158.2 280.437 158.808 276.917 159.256 273.397C159.512 271.349 159.832 268.597 160.216 265.141C160.6 261.621 160.792 258.229 160.792 254.965C160.792 253.685 160.76 252.501 160.696 251.413C160.632 250.261 160.472 249.237 160.216 248.341C158.104 248.341 155.992 248.341 153.88 248.341C151.768 248.277 149.688 248.245 147.64 248.245C146.68 248.245 145.336 248.309 143.608 248.437C141.944 248.565 140.216 248.853 138.424 249.301C136.696 249.749 135.256 250.485 134.104 251.509C132.952 252.533 132.44 253.909 132.568 255.637C132.632 256.149 132.824 256.853 133.144 257.749C133.464 258.581 133.688 259.093 133.816 259.285L132.76 260.053C132.376 259.349 131.896 258.549 131.32 257.653C130.744 256.693 130.232 255.765 129.784 254.869C129.336 253.973 129.08 253.301 129.016 252.853C128.952 252.213 128.984 251.381 129.112 250.357C129.24 249.333 129.752 248.437 130.648 247.669C131.608 246.837 132.92 246.293 134.584 246.037C136.312 245.781 138.072 245.653 139.864 245.653C141.592 245.653 143.256 245.717 144.856 245.845C146.456 245.973 147.768 246.037 148.792 246.037C148.792 246.037 149.528 246.037 151 246.037C152.472 246.037 154.328 246.037 156.568 246.037C158.872 245.973 161.304 245.941 163.864 245.941C166.424 245.941 168.76 245.941 170.872 245.941L168.856 248.437H162.136C163.096 250.229 163.704 252.725 163.96 255.925C164.28 259.125 164.44 262.197 164.44 265.141C164.44 266.357 164.44 267.509 164.44 268.597C164.44 269.685 164.408 270.645 164.344 271.477C164.216 274.485 163.8 278.101 163.096 282.325C162.392 286.549 161.496 290.549 160.408 294.325C163.032 290.613 166.232 286.197 170.008 281.077C173.848 275.957 178.232 270.645 183.16 265.141C188.152 259.573 193.656 254.293 199.672 249.301C200.888 248.277 202.488 247.125 204.472 245.845C206.456 244.565 208.568 243.477 210.808 242.581C213.048 241.621 215.16 241.141 217.144 241.141C219 241.141 220.28 241.461 220.984 242.101C221.752 242.741 222.136 243.573 222.136 244.597C222.136 245.813 221.752 247.157 220.984 248.629C220.28 250.101 219.736 251.317 219.352 252.277C219.288 252.469 219 252.597 218.488 252.661C217.976 252.725 217.752 252.629 217.816 252.373C217.944 251.861 218.072 251.253 218.2 250.549C218.392 249.781 218.488 249.013 218.488 248.245C218.488 247.221 218.296 246.293 217.912 245.461C217.528 244.629 216.792 244.149 215.704 244.021C215.512 243.957 215.32 243.925 215.128 243.925C214.936 243.925 214.744 243.925 214.552 243.925C212.696 243.925 210.68 244.565 208.504 245.845C206.392 247.061 203.928 248.789 201.112 251.029C195.736 255.317 190.616 260.053 185.752 265.237C180.952 270.357 176.344 275.733 171.928 281.365C169.624 284.245 167.384 287.157 165.208 290.101C163.032 293.045 161.016 296.117 159.16 299.317C159.032 299.573 158.904 299.861 158.776 300.181C158.712 300.565 158.616 300.853 158.488 301.045C158.36 301.173 157.976 301.365 157.336 301.621C156.696 301.941 156.056 302.197 155.416 302.389C154.84 302.645 154.456 302.773 154.264 302.773Z" fill="black"/>
<defs>
<filter id="filter0_i_431_1438" x="42.0133" y="0" width="253.304" height="350.579" filterUnits="userSpaceOnUse" color-interpolation-filters="sRGB">
<feFlood flood-opacity="0" result="BackgroundImageFix"/>
<feBlend mode="normal" in="SourceGraphic" in2="BackgroundImageFix" result="shape"/>
<feColorMatrix in="SourceAlpha" type="matrix" values="0 0 0 0 0 0 0 0 0 0 0 0 0 0 0 0 0 0 127 0" result="hardAlpha"/>
<feOffset dy="4"/>
<feGaussianBlur stdDeviation="2"/>
<feComposite in2="hardAlpha" operator="arithmetic" k2="-1" k3="1"/>
<feColorMatrix type="matrix" values="0 0 0 0 0 0 0 0 0 0 0 0 0 0 0 0 0 0 0.3 0"/>
<feBlend mode="normal" in2="shape" result="effect1_innerShadow_431_1438"/>
</filter>
</defs>
</svg>
